# Blender 5.1.2
# www.blender.org
mtllib Mur_Ext.mtl
o Murs.Ext
v -7.483251 -0.000001 -3.575150
v -3.943674 -0.000001 -3.575473
v -1.154178 -0.000001 -3.576046
v 6.443443 0.000000 0.144716
v 6.442296 0.000001 4.648805
v 4.295377 -0.000000 -0.800421
v 1.458784 -0.000000 -0.800421
v -4.436192 0.000001 4.412290
v -4.435942 0.000001 4.644706
v -7.483395 2.499000 4.644848
v -7.483252 0.000001 4.644956
v -7.483251 2.498999 -3.575150
v -3.943674 2.499000 -3.575473
v -1.154178 2.498999 -3.576046
v -1.153282 2.498999 -3.819164
v -1.153282 -0.000001 -3.819164
v -0.886214 2.498999 -3.819057
v -0.886106 -0.000001 -3.818914
v 1.465466 -0.000000 -1.234147
v 4.294180 -0.000000 -1.234147
v 6.424299 2.498999 -3.819223
v 6.424299 -0.000001 -3.819223
v 6.675455 2.498999 -3.819223
v 6.675455 -0.000001 -3.819223
v 6.675597 2.499000 0.143962
v 6.675704 0.000000 0.143820
v 6.443443 2.499000 0.144716
v 6.442439 2.499001 4.648697
v -3.608294 0.000001 4.411996
v -3.608294 0.000001 4.648805
v 6.035779 1.000001 3.402293
v -2.158056 0.999999 -3.163883
v -3.088619 0.999999 -3.163884
v -4.806900 0.999999 -3.163884
v -5.732277 0.999999 -3.163883
v -5.741473 0.999999 -3.574847
v -4.813668 0.999999 -3.574848
v -3.078738 0.999999 -3.574848
v -2.153475 0.999999 -3.574847
v 6.442244 1.000000 2.476733
v 6.442244 1.000001 3.420319
v 6.035780 2.200000 3.402293
v -3.608626 2.054028 4.412007
v 4.295054 2.200000 -0.800474
v 1.459120 2.200113 -0.800433
v -2.157944 2.199987 -3.163842
v -3.088607 2.200113 -3.163843
v -4.806478 2.200416 -3.163593
v -5.732264 2.200112 -3.163842
v -4.435619 2.053612 4.412592
v -4.435619 2.053612 4.644653
v -5.741462 2.200112 -3.574889
v -4.813556 2.199987 -3.574890
v -3.078725 2.200112 -3.574890
v -2.153487 2.200112 -3.574889
v 1.466047 2.200113 -1.233887
v 4.293596 2.200113 -1.233886
v 6.442286 2.200113 2.476745
v 6.442284 2.200113 3.420308
v -3.609055 2.053725 4.648543
v 6.035781 1.000000 2.476733
v 6.035739 2.200113 2.476745
vn -0.0000 -0.0019 -1.0000
vn -0.0000 -1.0000 -0.0003
vn 0.0001 -1.0000 -0.0013
vn 0.0039 -0.0001 1.0000
vn -0.0000 0.0006 -1.0000
vn -1.0000 -0.0000 -0.0037
vn -0.0000 1.0000 -0.0000
vn 0.0003 -1.0000 0.0010
vn -1.0000 -0.0002 -0.0018
vn -0.0000 -0.0000 1.0000
vn 0.0443 -0.0000 -0.9990
vn 0.9997 -0.0000 0.0240
vn 1.0000 -0.0003 -0.0011
vn -0.0003 0.0059 1.0000
vn -0.9999 0.0003 0.0172
vn 0.0001 -0.0000 1.0000
vn -1.0000 -0.0001 -0.0000
vn 1.0000 -0.0005 -0.0000
vn -0.0011 -0.0000 -1.0000
vn -0.0002 0.0010 -1.0000
vn 1.0000 -0.0000 -0.0000
vn -0.0002 -0.0032 -1.0000
vn 1.0000 -0.0001 -0.0001
vn 0.9997 -0.0000 -0.0224
vn -0.0000 0.0001 1.0000
vn -0.9999 0.0001 -0.0111
vn 0.0009 -0.0001 -1.0000
vn -0.0000 -0.0004 -1.0000
vn 1.0000 -0.0000 0.0005
vn -0.0000 -1.0000 -0.0001
vn 0.9999 -0.0003 0.0154
vn -1.0000 -0.0001 0.0028
vn 0.0001 -0.0000 -1.0000
vn -0.0000 -0.0000 -1.0000
vn 1.0000 0.0006 0.0003
vn -0.0001 -0.0014 -1.0000
vn -0.0001 -1.0000 -0.0000
vn 0.0005 -1.0000 -0.0000
vn 0.0032 -0.0000 1.0000
vn -0.0001 0.0005 -1.0000
vn -1.0000 -0.0004 -0.0000
vn 1.0000 -0.0002 -0.0000
vn -0.0047 -0.0326 0.9995
vn -0.9999 0.0001 0.0165
vn -1.0000 -0.0000 -0.0000
vn 1.0000 -0.0021 0.0002
vn -0.0012 -0.0000 -1.0000
vn 1.0000 -0.0000 -0.0001
vn -0.9999 -0.0000 -0.0108
vn 0.0004 -0.0000 -1.0000
vn -0.0007 -0.0000 -1.0000
vn 0.0007 -0.0000 -1.0000
vn 0.0003 -1.0000 -0.0000
vn -0.0000 -1.0000 -0.0000
vn 0.9999 -0.0002 0.0160
vn -1.0000 -0.0003 0.0034
vn 0.0002 -0.0000 -1.0000
vn 1.0000 0.0001 -0.0000
vt 0.380364 0.329405
vt 0.358902 0.200309
vt 0.380373 0.262773
vt 0.597404 0.608346
vt 0.567887 0.674466
vt 0.567887 0.608026
vt 0.673240 0.667381
vt 0.656426 0.608026
vt 0.673411 0.608026
vt 0.507005 0.454480
vt 0.523676 0.633931
vt 0.506998 0.633931
vt 0.538352 0.200309
vt 0.466543 0.329406
vt 0.466543 0.262782
vt 0.506998 0.454480
vt 0.489540 0.633931
vt 0.489540 0.454480
vt 0.597404 0.608355
vt 0.626915 0.674468
vt 0.597404 0.675177
vt 0.538370 0.608686
vt 0.567887 0.674658
vt 0.538352 0.675166
vt 0.734808 0.147498
vt 0.717823 0.000022
vt 0.734808 -0.000000
vt 0.326735 0.676456
vt 0.355926 0.590277
vt 0.355923 0.676456
vt 0.326731 0.676456
vt 0.297536 0.590286
vt 0.326732 0.590277
vt 0.208989 0.676456
vt 0.238504 0.590278
vt 0.238502 0.676456
vt 0.717825 0.147498
vt 0.734492 0.294965
vt 0.717803 0.294965
vt 0.000000 -0.000000
vt 0.031975 0.278212
vt -0.000000 1.000000
vt 0.208986 0.590307
vt 0.179475 0.676478
vt 0.179451 0.590278
vt 0.031983 0.218858
vt 0.179451 0.000010
vt 0.179451 0.218835
vt 0.656426 0.608686
vt 0.626915 0.674650
vt 0.626915 0.608026
vt 0.179451 0.590270
vt 0.358902 0.000000
vt 0.358901 0.590278
vt 0.559815 0.155973
vt 0.538352 0.000008
vt 0.559815 0.088217
vt 0.448409 0.680226
vt 0.419221 0.613762
vt 0.448409 0.612468
vt 0.358902 0.000000
vt 0.466543 0.071758
vt 0.380364 0.071758
vt 0.538352 0.000000
vt 0.717803 0.323444
vt 0.538352 0.608025
vt 0.538352 0.323434
vt 0.645994 0.088216
vt 0.717803 -0.000000
vt 0.297533 0.676457
vt 0.268021 0.590278
vt 0.297536 0.590278
vt 0.179451 0.999990
vt 0.179451 0.278267
vt 0.238504 0.590285
vt 0.268015 0.676456
vt 0.238504 0.676455
vt 0.452319 0.633931
vt 0.471497 0.454480
vt 0.471505 0.633931
vt 0.466543 0.138199
vt 0.645994 0.155974
vt 0.538352 0.323434
vt 0.390027 0.680224
vt 0.419218 0.613762
vt 0.419221 0.680224
vt 0.358902 0.658126
vt 0.390027 0.454978
vt 0.390024 0.658022
vt 0.390046 0.454480
vt 0.421174 0.612468
vt 0.390027 0.612468
vt 0.421196 0.454485
vt 0.452319 0.612468
vt 0.421174 0.612464
vt 0.358902 0.454480
vt 0.489540 0.454480
vt 0.471505 0.633931
vt 0.471505 0.454480
vt 0.717803 0.323434
vt 0.597404 0.675176
vt 0.656576 0.667411
vt 0.523676 0.454480
vt 0.538352 0.454480
vt 0.506998 0.633931
vt 0.626915 0.608026
vt 0.567887 0.608026
vt 0.717803 0.147498
vt 0.297537 0.676456
vt 0.208986 0.590278
vt 0.734489 0.147498
vt 0.208986 0.676477
vt 0.656426 0.675136
vt 0.179451 -0.000000
vt 0.419221 0.680226
vt 0.717803 0.608026
vt 0.380364 0.138198
vt 0.268023 0.676457
vt 0.268021 0.590278
vt 0.452319 0.454480
vt 0.390027 0.612468
vt 0.358902 0.454480
vt 0.421172 0.454480
vt 0.452319 0.454480
vt 0.489540 0.633931
s 0
usemtl Murs_EXT
f 52/1/1 13/2/1 53/3/1
f 46/4/2 54/5/2 55/6/2
f 51/7/3 43/8/3 60/9/3
f 25/10/4 4/11/4 26/12/4
f 2/13/5 36/14/5 37/15/5
f 15/16/6 3/17/6 14/18/6
f 32/19/7 38/20/7 33/21/7
f 49/22/8 53/23/8 48/24/8
f 29/25/9 60/26/9 43/27/9
f 40/28/10 62/29/10 61/30/10
f 41/31/11 42/32/11 59/33/11
f 38/34/12 47/35/12 33/36/12
f 50/37/13 9/38/13 8/39/13
f 10/40/14 60/41/14 28/42/14
f 53/43/15 34/44/15 48/45/15
f 51/46/16 11/47/16 9/48/16
f 35/49/7 37/50/7 36/51/7
f 10/52/17 1/53/17 11/54/17
f 58/55/18 28/56/18 59/57/18
f 40/58/7 31/59/7 41/60/7
f 14/61/19 39/62/19 55/63/19
f 2/13/20 39/62/20 3/64/20
f 26/65/21 23/66/21 25/67/21
f 55/63/22 13/2/22 14/61/22
f 41/68/23 28/56/23 5/69/23
f 35/70/24 52/71/24 49/72/24
f 5/73/25 60/41/25 30/74/25
f 46/75/26 39/76/26 32/77/26
f 16/78/27 17/79/27 18/80/27
f 37/15/28 13/2/28 38/81/28
f 40/82/29 27/83/29 58/55/29
f 58/84/30 42/85/30 62/86/30
f 44/87/2 56/88/2 57/89/2
f 56/90/31 7/91/31 19/92/31
f 44/93/32 20/94/32 6/95/32
f 36/14/33 12/96/33 52/1/33
f 23/97/34 22/98/34 21/99/34
f 40/82/35 5/69/35 4/100/35
f 52/1/36 12/96/36 13/2/36
f 46/4/37 47/101/37 54/5/37
f 51/7/38 50/102/38 43/8/38
f 25/10/39 27/103/39 4/11/39
f 2/13/40 1/104/40 36/14/40
f 15/16/6 16/105/6 3/17/6
f 32/19/7 39/106/7 38/20/7
f 49/22/37 52/107/37 53/23/37
f 29/25/41 30/108/41 60/26/41
f 40/28/10 58/33/10 62/29/10
f 41/31/11 31/109/11 42/32/11
f 38/34/12 54/110/12 47/35/12
f 50/37/42 51/111/42 9/38/42
f 10/40/43 51/46/43 60/41/43
f 53/43/44 37/112/44 34/44/44
f 51/46/16 10/40/16 11/47/16
f 35/49/7 34/113/7 37/50/7
f 10/52/45 12/114/45 1/53/45
f 58/55/46 27/83/46 28/56/46
f 40/58/7 61/115/7 31/59/7
f 14/61/47 3/64/47 39/62/47
f 2/13/5 38/81/5 39/62/5
f 26/65/48 24/116/48 23/66/48
f 55/63/1 54/117/1 13/2/1
f 41/68/48 59/57/48 28/56/48
f 35/70/24 36/118/24 52/71/24
f 5/73/10 28/42/10 60/41/10
f 46/75/49 55/119/49 39/76/49
f 16/78/50 15/120/50 17/79/50
f 38/81/5 2/13/5 37/15/5
f 37/15/51 53/3/51 13/2/51
f 13/2/52 54/117/52 38/81/52
f 40/82/29 4/100/29 27/83/29
f 58/84/53 59/121/53 42/85/53
f 44/87/54 45/122/54 56/88/54
f 56/90/55 45/123/55 7/91/55
f 44/93/56 57/124/56 20/94/56
f 36/14/57 1/104/57 12/96/57
f 23/97/34 24/125/34 22/98/34
f 40/82/58 41/68/58 5/69/58
