# Blender 5.1.2
# www.blender.org
mtllib Sol.mtl
o Sol_Salon
v 6.443727 0.000000 0.144717
v 6.675523 0.000000 0.144717
v 6.675524 0.000000 -1.043577
v 6.443727 0.000000 2.883892
v -0.897442 0.000000 2.883891
v -0.330743 0.000000 2.883892
v -0.897442 0.000000 1.384632
v -0.347114 0.000000 -1.038614
v -0.347114 0.000000 1.384632
vn -0.0000 1.0000 -0.0000
vt 0.518617 0.000000
vt 0.361704 0.030608
vt 0.361704 0.000000
vt 0.517962 0.927330
vt -0.000000 0.030608
vt 0.197975 0.927330
vt 0.000000 0.925168
vt 0.197975 1.000000
vt 0.000000 1.000000
s 0
usemtl M_Parquet
f 3/1/1 1/2/1 2/3/1
f 1/2/1 3/1/1 8/4/1
f 4/5/1 1/2/1 9/6/1 6/7/1
f 6/7/1 9/6/1 7/8/1 5/9/1
f 8/4/1 9/6/1 1/2/1
o Sol_balcon
v 6.675524 0.000000 -3.819163
v -1.153855 0.000000 -3.819164
v -1.153855 0.000000 -3.575150
v 6.675524 0.000000 -1.043577
v -0.314372 0.000000 -3.578180
v -0.314372 0.000000 -1.038172
vn -0.0000 1.0000 -0.0000
vt 0.030779 0.107222
vt 0.000000 1.000000
vt 0.000000 -0.000000
vt 0.031167 -0.000000
vt 0.354509 1.000000
vt 0.355200 0.107222
s 0
usemtl M_balcon
f 14/10/2 10/11/2 11/12/2 12/13/2
f 13/14/2 10/11/2 14/10/2 15/15/2
o Sol_Cuisine
v 6.443727 0.000000 4.648806
v -0.330743 0.000000 4.648805
v 6.443727 0.000000 2.883892
v -0.330743 0.000000 2.883892
vn -0.0000 1.0000 -0.0000
vt 0.000000 0.000000
vt 0.260524 0.000000
vt 0.260524 1.000000
vt 0.000000 1.000000
s 0
usemtl M_Carrelage_blanc
f 16/16/3 18/17/3 19/18/3 17/19/3
o Sol_toilette
v -2.080465 0.000000 4.648805
v -0.330743 0.000000 4.648805
v -2.080465 0.000000 2.883891
v -0.330743 0.000000 2.883892
vn -0.0000 1.0000 -0.0000
vt 0.587264 0.315103
vt 0.587264 0.573960
vt 0.330635 0.573960
vt 0.330634 0.315103
s 0
usemtl M_Carrelage_blanc
f 21/20/4 23/21/4 22/22/4 20/23/4
o Sol_Salle_de_bain
v -4.671817 0.000000 4.648805
v -7.483323 0.000000 1.737718
v -4.671817 0.000000 1.737718
v -7.483323 0.000000 4.648805
vn -0.0000 1.0000 -0.0000
vt 0.658860 0.215223
vt 0.658860 0.640609
vt 0.248025 0.640609
vt 0.248025 0.215223
s 0
usemtl M_Carrelage_blanc
f 24/24/5 26/25/5 25/26/5 27/27/5
o Sol_Chambres
v -7.483323 0.000000 -3.575150
v -0.314372 0.000000 -3.578180
v -0.347114 0.000000 -1.038172
v -7.483323 0.000000 1.737718
v -4.671817 0.000000 1.737718
v -0.897442 0.000000 1.384632
v -0.347114 0.000000 -1.038614
v -0.347114 0.000000 1.384632
v -4.671817 0.000000 1.376003
v -1.625636 0.000000 1.376003
vn -0.0000 1.0000 -0.0000
vt 0.741028 0.392055
vt 0.690588 0.392077
vt 0.740862 0.000000
vt 0.000000 0.000313
vt 0.354194 0.995285
vt 0.000000 1.000000
vt 0.692014 0.918400
vt 0.692046 0.995142
vt 0.354132 0.995285
vt 0.690767 0.816857
s 0
usemtl M_Parquet
f 32/28/6 36/29/6 31/30/6
f 28/31/6 30/32/6 29/33/6
f 33/34/6 35/35/6 34/36/6 30/32/6
f 37/37/6 33/34/6 30/32/6
f 36/29/6 37/37/6 30/32/6 28/31/6
f 31/30/6 36/29/6 28/31/6
o Sol_Entree
v -2.080465 0.000000 4.648805
v -4.671817 0.000000 4.648805
v -2.080465 0.000000 2.883891
v -4.671817 0.000000 1.737718
v -0.897442 0.000000 2.883891
v -0.897442 0.000000 1.384632
v -4.671817 0.000000 1.376003
v -1.625636 0.000000 1.376003
vn -0.0000 1.0000 -0.0000
vt 0.467604 0.313435
vt 0.771277 1.000000
vt 0.000000 1.000000
vt 0.000000 0.313435
vt 0.867111 0.192931
vt 0.867111 1.000000
vt 0.467604 -0.000000
vt 0.864825 0.000000
s 0
usemtl M_Parquet
f 40/38/7 41/39/7 39/40/7 38/41/7
f 40/38/7 45/42/7 44/43/7 41/39/7
f 42/44/7 43/45/7 45/42/7 40/38/7
